<svg width="12" height="12" viewBox="0 0 12 12" fill="none" xmlns="http://www.w3.org/2000/svg">
<path d="M3.96408 1.60593H3.85693C3.91586 1.60593 3.96408 1.55771 3.96408 1.49878V1.60593H8.03551V1.49878C8.03551 1.55771 8.08372 1.60593 8.14265 1.60593H8.03551V2.57021H8.99979V1.49878C8.99979 1.02601 8.61542 0.64164 8.14265 0.64164H3.85693C3.38417 0.64164 2.99979 1.02601 2.99979 1.49878V2.57021H3.96408V1.60593ZM10.7141 2.57021H1.28551C1.04845 2.57021 0.856934 2.76173 0.856934 2.99878V3.42735C0.856934 3.48628 0.905148 3.5345 0.964076 3.5345H1.77301L2.10381 10.539C2.12524 10.9957 2.50292 11.3559 2.95961 11.3559H9.03997C9.49801 11.3559 9.87435 10.997 9.89578 10.539L10.2266 3.5345H11.0355C11.0944 3.5345 11.1427 3.48628 11.1427 3.42735V2.99878C11.1427 2.76173 10.9511 2.57021 10.7141 2.57021ZM8.93685 10.3916H3.06274L2.73863 3.5345H9.26095L8.93685 10.3916Z" fill="#242424"/>
</svg>
